<svg width="151" height="120" viewBox="0 0 151 120" fill="none" xmlns="http://www.w3.org/2000/svg">
<path fill-rule="evenodd" clip-rule="evenodd" d="M45.0744 103.634C29.6943 93.5521 19.5312 76.1884 19.5312 56.4446C19.5312 25.283 44.8299 0.0222168 76.0381 0.0222168C107.245 0.0222168 132.545 25.283 132.545 56.4446C132.545 76.1884 122.381 93.5521 107.001 103.634H45.0744Z" fill="#CEECD3"/>
<path fill-rule="evenodd" clip-rule="evenodd" d="M76.038 19.5135C95.8976 19.5135 111.997 35.5888 111.997 55.4187C111.997 75.2486 95.8976 91.3239 76.038 91.3239C56.1784 91.3239 40.0791 75.2486 40.0791 55.4187C40.0791 35.5888 56.1784 19.5135 76.038 19.5135Z" fill="#CEECD3"/>
<path fill-rule="evenodd" clip-rule="evenodd" d="M121.758 101.583H25.1822C24.3315 101.583 23.6411 102.272 23.6411 103.121C23.6411 103.971 24.3315 104.66 25.1822 104.66H121.758C122.608 104.66 123.299 103.971 123.299 103.121C123.299 102.272 122.608 101.583 121.758 101.583ZM126.895 101.583C126.044 101.583 125.353 102.272 125.353 103.121C125.353 103.971 126.044 104.66 126.895 104.66C127.745 104.66 128.436 103.971 128.436 103.121C128.436 102.272 127.745 101.583 126.895 101.583Z" fill="#121212"/>
<path fill-rule="evenodd" clip-rule="evenodd" d="M96.0723 108.764H40.5929C39.7422 108.764 39.0518 109.453 39.0518 110.302C39.0518 111.152 39.7422 111.841 40.5929 111.841H96.0723C96.923 111.841 97.6134 111.152 97.6134 110.302C97.6134 109.453 96.923 108.764 96.0723 108.764ZM108.401 108.764H101.209C100.359 108.764 99.6682 109.453 99.6682 110.302C99.6682 111.152 100.359 111.841 101.209 111.841H108.401C109.252 111.841 109.942 111.152 109.942 110.302C109.942 109.453 109.252 108.764 108.401 108.764ZM85.7983 115.945H50.8668C50.0161 115.945 49.3257 116.634 49.3257 117.483C49.3257 118.333 50.0161 119.022 50.8668 119.022H85.7983C86.649 119.022 87.3394 118.333 87.3394 117.483C87.3394 116.634 86.649 115.945 85.7983 115.945ZM94.0173 115.945H90.9351C90.0845 115.945 89.394 116.634 89.394 117.483C89.394 118.333 90.0845 119.022 90.9351 119.022H94.0173C94.868 119.022 95.5584 118.333 95.5584 117.483C95.5584 116.634 94.868 115.945 94.0173 115.945Z" fill="#34AA44"/>
<path fill-rule="evenodd" clip-rule="evenodd" d="M120.166 94.3512C127.163 87.6319 131.518 78.1883 131.518 67.7291C131.518 47.3327 114.958 30.7981 94.5313 30.7981C94.5313 30.7981 94.5313 30.7981 94.5312 30.7981V68.755L120.166 94.3512Z" fill="#EDF9FE"/>
<path fill-rule="evenodd" clip-rule="evenodd" d="M68.8967 94.3512C61.8993 87.6319 57.545 78.1883 57.545 67.7291C57.545 47.3327 74.1043 30.7981 94.5312 30.7981V68.755L68.8967 94.3512Z" fill="#34AA44"/>
<path fill-rule="evenodd" clip-rule="evenodd" d="M120.166 94.3513C113.518 100.735 104.484 104.66 94.5318 104.66C84.1409 104.66 74.7507 100.382 68.032 93.4926L94.5316 68.755L120.166 94.3513Z" fill="white"/>
<path d="M130.018 67.7291C130.018 87.295 114.132 103.16 94.5312 103.16C74.9306 103.16 59.0449 87.295 59.0449 67.7291C59.0449 48.1632 74.9306 32.2981 94.5312 32.2981C114.132 32.2981 130.018 48.1632 130.018 67.7291Z" stroke="#121212" stroke-width="3"/>
<path fill-rule="evenodd" clip-rule="evenodd" d="M92.4766 34.3499C92.4766 33.5214 93.1481 32.8499 93.9766 32.8499H94.0588C94.8872 32.8499 95.5588 33.5214 95.5588 34.3499V67.255C95.5588 68.0835 94.8872 68.755 94.0588 68.755H93.9766C93.1481 68.755 92.4766 68.0835 92.4766 67.255V34.3499Z" fill="#121212"/>
<path fill-rule="evenodd" clip-rule="evenodd" d="M93.6049 70.0059C93.0187 69.4206 93.0187 68.4715 93.6049 67.8862L93.6614 67.8297C94.2477 67.2444 95.1981 67.2444 95.7843 67.8297L119.088 91.0988C119.674 91.6841 119.674 92.6332 119.088 93.2185L119.032 93.275C118.445 93.8603 117.495 93.8603 116.909 93.275L93.6049 70.0059Z" fill="#121212"/>
<path fill-rule="evenodd" clip-rule="evenodd" d="M92.251 67.8298C92.8373 67.2444 93.7877 67.2444 94.374 67.8298L94.4305 67.8862C95.0167 68.4716 95.0167 69.4206 94.4305 70.0059L71.1266 93.275C70.5404 93.8604 69.5899 93.8604 69.0037 93.275L68.9472 93.2186C68.3609 92.6332 68.3609 91.6842 68.9472 91.0988L92.251 67.8298Z" fill="#121212"/>
<path d="M31.3052 29.6429C31.3052 27.7099 32.8722 26.1429 34.8052 26.1429H39.1887C41.1217 26.1429 42.6887 27.7099 42.6887 29.6429V103.16H31.3052V29.6429Z" fill="#EDF9FE" stroke="#121212" stroke-width="3"/>
<path d="M53.9082 66.574C53.9082 64.641 55.4752 63.074 57.4082 63.074H61.7918C63.7248 63.074 65.2918 64.641 65.2918 66.574V103.16H53.9082V66.574Z" fill="#EDF9FE" stroke="#121212" stroke-width="3"/>
<path d="M65.2095 80.936C65.2095 79.003 66.7765 77.436 68.7095 77.436H73.093C75.026 77.436 76.593 79.003 76.593 80.936V103.16H65.2095V80.936Z" fill="#EDF9FE" stroke="#121212" stroke-width="3"/>
<path d="M42.6064 15.2809C42.6064 13.3479 44.1734 11.7809 46.1064 11.7809H50.49C52.423 11.7809 53.99 13.3479 53.99 15.2809V103.16H42.6064V15.2809Z" fill="#34AA44" stroke="#121212" stroke-width="3"/>
<path fill-rule="evenodd" clip-rule="evenodd" d="M52.4082 51.3565V46.2272C52.4082 47.0556 53.0798 47.7272 53.9082 47.7272H53.9904C54.8188 47.7272 55.4904 47.0556 55.4904 46.2272V51.3565C55.4904 51.5222 55.4635 51.6816 55.4139 51.8306C55.2155 51.2346 54.6531 50.8048 53.9904 50.8048H53.9082C53.2455 50.8048 52.6831 51.2346 52.4847 51.8306C52.4351 51.6816 52.4082 51.5222 52.4082 51.3565Z" fill="#EDF9FE"/>
<path fill-rule="evenodd" clip-rule="evenodd" d="M52.4082 57.5116V52.3823C52.4082 53.2108 53.0798 53.8823 53.9082 53.8823H53.9904C54.8188 53.8823 55.4904 53.2108 55.4904 52.3823V57.5116C55.4904 57.6773 55.4635 57.8367 55.4139 57.9858C55.2155 57.3897 54.6531 56.9599 53.9904 56.9599H53.9082C53.2455 56.9599 52.6831 57.3897 52.4847 57.9858C52.4351 57.8367 52.4082 57.6773 52.4082 57.5116Z" fill="#EDF9FE"/>
<path fill-rule="evenodd" clip-rule="evenodd" d="M142.305 4.12579C141.455 4.12579 140.764 4.81517 140.764 5.66459C140.764 6.514 141.455 7.20338 142.305 7.20338C143.156 7.20338 143.846 6.514 143.846 5.66459C143.846 4.81517 143.156 4.12579 142.305 4.12579ZM1.55184 42.0827C0.701153 42.0827 0.0107422 42.7721 0.0107422 43.6215C0.0107422 44.4709 0.701153 45.1603 1.55184 45.1603C2.40252 45.1603 3.09293 44.4709 3.09293 43.6215C3.09293 42.7721 2.40252 42.0827 1.55184 42.0827ZM21.5861 2.07406H20.5587V1.0482C20.5587 0.481925 20.0984 0.0223389 19.5313 0.0223389C18.9642 0.0223389 18.5039 0.481925 18.5039 1.0482V2.07406H17.4765C16.9094 2.07406 16.4491 2.53365 16.4491 3.09993C16.4491 3.6662 16.9094 4.12579 17.4765 4.12579H18.5039V5.15165C18.5039 5.71793 18.9642 6.17751 19.5313 6.17751C20.0984 6.17751 20.5587 5.71793 20.5587 5.15165V4.12579H21.5861C22.1532 4.12579 22.6135 3.6662 22.6135 3.09993C22.6135 2.53365 22.1532 2.07406 21.5861 2.07406ZM8.22976 72.8586H7.20236V71.8327C7.20236 71.2664 6.74209 70.8068 6.17497 70.8068C5.60784 70.8068 5.14757 71.2664 5.14757 71.8327V72.8586H4.12017C3.55305 72.8586 3.09277 73.3181 3.09277 73.8844C3.09277 74.4507 3.55305 74.9103 4.12017 74.9103H5.14757V75.9361C5.14757 76.5024 5.60784 76.962 6.17497 76.962C6.74209 76.962 7.20236 76.5024 7.20236 75.9361V74.9103H8.22976C8.79688 74.9103 9.25716 74.4507 9.25716 73.8844C9.25716 73.3181 8.79688 72.8586 8.22976 72.8586ZM148.983 34.9016H147.956V33.8758C147.956 33.3095 147.496 32.8499 146.928 32.8499C146.361 32.8499 145.901 33.3095 145.901 33.8758V34.9016H144.874C144.306 34.9016 143.846 35.3612 143.846 35.9275C143.846 36.4938 144.306 36.9534 144.874 36.9534H145.901V37.9792C145.901 38.5455 146.361 39.0051 146.928 39.0051C147.496 39.0051 147.956 38.5455 147.956 37.9792V36.9534H148.983C149.55 36.9534 150.011 36.4938 150.011 35.9275C150.011 35.3612 149.55 34.9016 148.983 34.9016Z" fill="#D3D3D3"/>
</svg>
