<svg width="151" height="120" viewBox="0 0 151 120" fill="none" xmlns="http://www.w3.org/2000/svg">
<path fill-rule="evenodd" clip-rule="evenodd" d="M44.4217 103.634C28.7189 93.5521 18.3427 76.1884 18.3427 56.4446C18.3427 25.283 44.172 0.0222168 76.035 0.0222168C107.897 0.0222168 133.727 25.283 133.727 56.4446C133.727 76.1884 123.35 93.5521 107.647 103.634H44.4217Z" fill="#C2EAFC"/>
<path fill-rule="evenodd" clip-rule="evenodd" d="M76.0351 19.5135C96.3113 19.5135 112.748 35.5888 112.748 55.4187C112.748 75.2486 96.3113 91.3239 76.0351 91.3239C55.7588 91.3239 39.3218 75.2486 39.3218 55.4187C39.3218 35.5888 55.7588 19.5135 76.0351 19.5135Z" fill="#EDF9FE"/>
<path fill-rule="evenodd" clip-rule="evenodd" d="M122.713 101.583H24.112C23.2435 101.583 22.5386 102.272 22.5386 103.121C22.5386 103.971 23.2435 104.66 24.112 104.66H122.713C123.582 104.66 124.287 103.971 124.287 103.121C124.287 102.272 123.582 101.583 122.713 101.583ZM127.958 101.583C127.09 101.583 126.385 102.272 126.385 103.121C126.385 103.971 127.09 104.66 127.958 104.66C128.827 104.66 129.532 103.971 129.532 103.121C129.532 102.272 128.827 101.583 127.958 101.583Z" fill="#121212"/>
<path fill-rule="evenodd" clip-rule="evenodd" d="M96.4895 108.764H39.8461C38.9776 108.764 38.2727 109.453 38.2727 110.302C38.2727 111.152 38.9776 111.841 39.8461 111.841H96.4895C97.358 111.841 98.0629 111.152 98.0629 110.302C98.0629 109.453 97.358 108.764 96.4895 108.764ZM109.077 108.764H101.734C100.866 108.764 100.161 109.453 100.161 110.302C100.161 111.152 100.866 111.841 101.734 111.841H109.077C109.945 111.841 110.65 111.152 110.65 110.302C110.65 109.453 109.945 108.764 109.077 108.764ZM86 115.945H50.3356C49.4671 115.945 48.7622 116.634 48.7622 117.483C48.7622 118.333 49.4671 119.022 50.3356 119.022H86C86.8685 119.022 87.5734 118.333 87.5734 117.483C87.5734 116.634 86.8685 115.945 86 115.945ZM94.3917 115.945H91.2448C90.3763 115.945 89.6714 116.634 89.6714 117.483C89.6714 118.333 90.3763 119.022 91.2448 119.022H94.3917C95.2602 119.022 95.9651 118.333 95.9651 117.483C95.9651 116.634 95.2602 115.945 94.3917 115.945Z" fill="#299DF5"/>
<path d="M77.5349 69.5481C77.5349 65.406 80.8928 62.0481 85.0349 62.0481H111.091C115.233 62.0481 118.591 65.406 118.591 69.5481V94.6343C118.591 98.7764 115.233 102.134 111.091 102.134H85.0349C80.8928 102.134 77.5349 98.7764 77.5349 94.6343V69.5481Z" fill="#EDF9FE" stroke="#121212" stroke-width="3"/>
<path fill-rule="evenodd" clip-rule="evenodd" d="M106.454 90.2981H87.5734V90.2057C84.5975 89.7164 82.3286 87.1918 82.3286 84.1429C82.3286 80.7432 85.1461 77.9877 88.6223 77.9877C89.322 77.9877 89.9912 78.1036 90.6195 78.3098C92.0188 75.6816 94.8237 73.8843 98.0629 73.8843C102.697 73.8843 106.454 77.5589 106.454 82.0912C108.772 82.0912 110.65 83.9285 110.65 86.1946C110.65 88.4608 108.772 90.2981 106.454 90.2981Z" fill="#299DF5"/>
<path d="M33.479 12.0999C33.479 7.95772 36.8369 4.59985 40.979 4.59985H80.6713C84.8134 4.59985 88.1713 7.95772 88.1713 12.0999V95.6602C88.1713 99.8023 84.8134 103.16 80.6713 103.16H40.979C36.8369 103.16 33.479 99.8023 33.479 95.6602V12.0999Z" fill="#EDF9FE" stroke="#121212" stroke-width="3"/>
<path fill-rule="evenodd" clip-rule="evenodd" d="M35.126 19.5135H86.5246V85.1687H35.126V19.5135Z" fill="white"/>
<path fill-rule="evenodd" clip-rule="evenodd" d="M36.1748 17.936C36.1748 17.1076 36.8464 16.436 37.6748 16.436H40.9685C41.7969 16.436 42.4685 17.1076 42.4685 17.936V18.0136C42.4685 18.842 41.7969 19.5136 40.9685 19.5136H37.6748C36.8464 19.5136 36.1748 18.842 36.1748 18.0136V17.936Z" fill="#121212"/>
<path fill-rule="evenodd" clip-rule="evenodd" d="M43.5176 17.936C43.5176 17.1076 44.1892 16.436 45.0176 16.436H87.1225C87.9509 16.436 88.6225 17.1076 88.6225 17.936V18.0136C88.6225 18.842 87.9509 19.5136 87.1225 19.5136H45.0176C44.1892 19.5136 43.5176 18.842 43.5176 18.0136V17.936Z" fill="#121212"/>
<path fill-rule="evenodd" clip-rule="evenodd" d="M36.1748 86.6688C36.1748 85.8404 36.8464 85.1688 37.6748 85.1688H40.9685C41.7969 85.1688 42.4685 85.8404 42.4685 86.6688V86.7464C42.4685 87.5748 41.7969 88.2464 40.9685 88.2464H37.6748C36.8464 88.2464 36.1748 87.5748 36.1748 86.7464V86.6688Z" fill="#121212"/>
<path fill-rule="evenodd" clip-rule="evenodd" d="M43.5176 86.6688C43.5176 85.8404 44.1892 85.1688 45.0176 85.1688H87.1225C87.9509 85.1688 88.6225 85.8404 88.6225 86.6688V86.7464C88.6225 87.5748 87.9509 88.2464 87.1225 88.2464H45.0176C44.1892 88.2464 43.5176 87.5748 43.5176 86.7464V86.6688Z" fill="#121212"/>
<path fill-rule="evenodd" clip-rule="evenodd" d="M31.979 48.2789V43.1495C31.979 43.978 32.6506 44.6495 33.479 44.6495H33.6259C34.4543 44.6495 35.1259 43.978 35.1259 43.1495V48.2789C35.1259 48.4446 35.099 48.604 35.0494 48.753C34.8509 48.157 34.2886 47.7272 33.6259 47.7272H33.479C32.8163 47.7272 32.2539 48.157 32.0555 48.753C32.0059 48.604 31.979 48.4446 31.979 48.2789Z" fill="#EDF9FE"/>
<path fill-rule="evenodd" clip-rule="evenodd" d="M57.1538 11.2809C57.1538 10.7286 57.6015 10.2809 58.1538 10.2809H63.4965C64.0487 10.2809 64.4965 10.7286 64.4965 11.2809V11.3326C64.4965 11.8849 64.0488 12.3326 63.4965 12.3326H58.1538C57.6015 12.3326 57.1538 11.8849 57.1538 11.3326V11.2809Z" fill="#D3D3D3"/>
<path fill-rule="evenodd" clip-rule="evenodd" d="M60.8251 98.505C62.8528 98.505 64.4965 96.8975 64.4965 94.9145C64.4965 92.9315 62.8528 91.324 60.8251 91.324C58.7975 91.324 57.1538 92.9315 57.1538 94.9145C57.1538 96.8975 58.7975 98.505 60.8251 98.505Z" fill="#299DF5"/>
<path fill-rule="evenodd" clip-rule="evenodd" d="M148.937 75.936C148.069 75.936 147.364 76.6254 147.364 77.4748C147.364 78.3242 148.069 79.0136 148.937 79.0136C149.806 79.0136 150.511 78.3242 150.511 77.4748C150.511 76.6254 149.806 75.936 148.937 75.936ZM141.07 16.436H140.021V15.4101C140.021 14.8439 139.551 14.3843 138.972 14.3843C138.393 14.3843 137.923 14.8439 137.923 15.4101V16.436H136.874C136.295 16.436 135.825 16.8956 135.825 17.4619C135.825 18.0281 136.295 18.4877 136.874 18.4877H137.923V19.5136C137.923 20.0799 138.393 20.5394 138.972 20.5394C139.551 20.5394 140.021 20.0799 140.021 19.5136V18.4877H141.07C141.649 18.4877 142.119 18.0281 142.119 17.4619C142.119 16.8956 141.649 16.436 141.07 16.436ZM5.75525 69.7808H4.7063V68.755C4.7063 68.1887 4.23637 67.7291 3.65735 67.7291C3.07833 67.7291 2.6084 68.1887 2.6084 68.755V69.7808H1.55945C0.980428 69.7808 0.510498 70.2404 0.510498 70.8067C0.510498 71.373 0.980428 71.8325 1.55945 71.8325H2.6084V72.8584C2.6084 73.4247 3.07833 73.8843 3.65735 73.8843C4.23637 73.8843 4.7063 73.4247 4.7063 72.8584V71.8325H5.75525C6.33427 71.8325 6.8042 71.373 6.8042 70.8067C6.8042 70.2404 6.33427 69.7808 5.75525 69.7808Z" fill="#D3D3D3"/>
</svg>
