<svg width="167" height="120" viewBox="0 0 167 120" fill="none" xmlns="http://www.w3.org/2000/svg">
<path fill-rule="evenodd" clip-rule="evenodd" d="M49.6486 103.634C33.6093 93.5521 23.0107 76.1884 23.0107 56.4446C23.0107 25.283 49.3936 0.0222168 81.9393 0.0222168C114.484 0.0222168 140.868 25.283 140.868 56.4446C140.868 76.1884 130.268 93.5521 114.229 103.634H49.6486Z" fill="#E2DAFB"/>
<path fill-rule="evenodd" clip-rule="evenodd" d="M129.618 101.583H28.9035C28.0164 101.583 27.2964 102.272 27.2964 103.121C27.2964 103.971 28.0164 104.66 28.9035 104.66H129.618C130.505 104.66 131.225 103.971 131.225 103.121C131.225 102.272 130.505 101.583 129.618 101.583ZM134.975 101.583C134.088 101.583 133.368 102.272 133.368 103.121C133.368 103.971 134.088 104.66 134.975 104.66C135.862 104.66 136.582 103.971 136.582 103.121C136.582 102.272 135.862 101.583 134.975 101.583Z" fill="#121212"/>
<path fill-rule="evenodd" clip-rule="evenodd" d="M102.832 108.764H44.9748C44.0877 108.764 43.3677 109.453 43.3677 110.302C43.3677 111.152 44.0877 111.841 44.9748 111.841H102.832C103.719 111.841 104.439 111.152 104.439 110.302C104.439 109.453 103.719 108.764 102.832 108.764ZM115.689 108.764H108.189C107.302 108.764 106.582 109.453 106.582 110.302C106.582 111.152 107.302 111.841 108.189 111.841H115.689C116.576 111.841 117.296 111.152 117.296 110.302C117.296 109.453 116.576 108.764 115.689 108.764ZM92.1177 115.945H55.6892C54.802 115.945 54.082 116.634 54.082 117.483C54.082 118.333 54.802 119.022 55.6892 119.022H92.1177C93.0049 119.022 93.7249 118.333 93.7249 117.483C93.7249 116.634 93.0049 115.945 92.1177 115.945ZM100.689 115.945H97.4748C96.5877 115.945 95.8677 116.634 95.8677 117.483C95.8677 118.333 96.5877 119.022 97.4748 119.022H100.689C101.576 119.022 102.296 118.333 102.296 117.483C102.296 116.634 101.576 115.945 100.689 115.945Z" fill="#815DE6"/>
<path d="M37.3677 12.0999C37.3677 7.95772 40.7255 4.59985 44.8677 4.59985H116.868C121.01 4.59985 124.368 7.95772 124.368 12.0999V103.16H37.3677V12.0999Z" fill="white" stroke="#121212" stroke-width="3"/>
<path fill-rule="evenodd" clip-rule="evenodd" d="M113.011 9.22913C113.011 8.67684 113.458 8.22913 114.011 8.22913H118.439C118.992 8.22913 119.439 8.67684 119.439 9.22913V9.28085C119.439 9.83313 118.992 10.2808 118.439 10.2808H114.011C113.458 10.2808 113.011 9.83313 113.011 9.28085V9.22913Z" fill="#D3D3D3"/>
<path fill-rule="evenodd" clip-rule="evenodd" d="M35.8677 48.2788V43.1495C35.8677 43.978 36.5392 44.6495 37.3677 44.6495H37.582C38.4104 44.6495 39.082 43.978 39.082 43.1495V48.2788C39.082 48.4445 39.0551 48.6039 39.0055 48.753C38.807 48.1569 38.2447 47.7271 37.582 47.7271H37.3677C36.7049 47.7271 36.1426 48.1569 35.9442 48.753C35.8945 48.6039 35.8677 48.4445 35.8677 48.2788Z" fill="#E2DAFB"/>
<path fill-rule="evenodd" clip-rule="evenodd" d="M40.1538 13.8325C40.1538 13.0041 40.8254 12.3325 41.6538 12.3325H45.0824C45.9108 12.3325 46.5824 13.0041 46.5824 13.8325V13.9101C46.5824 14.7385 45.9108 15.4101 45.0824 15.4101H41.6538C40.8254 15.4101 40.1538 14.7385 40.1538 13.9101V13.8325Z" fill="#121212"/>
<path fill-rule="evenodd" clip-rule="evenodd" d="M47.6538 13.8325C47.6538 13.0041 48.3254 12.3325 49.1538 12.3325H124.368C125.197 12.3325 125.868 13.0041 125.868 13.8325V13.9101C125.868 14.7385 125.197 15.4101 124.368 15.4101H49.1538C48.3254 15.4101 47.6538 14.7385 47.6538 13.9101V13.8325Z" fill="#121212"/>
<path fill-rule="evenodd" clip-rule="evenodd" d="M96.9395 15.4102H125.868V101.583H96.9395V15.4102Z" fill="#121212"/>
<path fill-rule="evenodd" clip-rule="evenodd" d="M43.3677 8.22913H45.5105V10.2808H43.3677V8.22913Z" fill="#D3D3D3"/>
<path fill-rule="evenodd" clip-rule="evenodd" d="M46.582 8.22913H48.7249V10.2808H46.582V8.22913Z" fill="#D3D3D3"/>
<path fill-rule="evenodd" clip-rule="evenodd" d="M49.7964 8.22913H51.9392V10.2808H49.7964V8.22913Z" fill="#D3D3D3"/>
<path fill-rule="evenodd" clip-rule="evenodd" d="M43.3677 21.5394C43.3677 20.9871 43.8154 20.5394 44.3677 20.5394H64.8677C65.42 20.5394 65.8677 20.9871 65.8677 21.5394V22.617C65.8677 23.1693 65.42 23.617 64.8677 23.617H44.3677C43.8154 23.617 43.3677 23.1693 43.3677 22.617V21.5394Z" fill="#D3D3D3"/>
<path fill-rule="evenodd" clip-rule="evenodd" d="M51.9395 27.6946C51.9395 27.1423 52.3872 26.6946 52.9395 26.6946H71.2966C71.8489 26.6946 72.2966 27.1423 72.2966 27.6946V28.7722C72.2966 29.3245 71.8489 29.7722 71.2966 29.7722H52.9395C52.3872 29.7722 51.9395 29.3245 51.9395 28.7722V27.6946Z" fill="#D3D3D3"/>
<path fill-rule="evenodd" clip-rule="evenodd" d="M43.3677 27.6946C43.3677 27.1423 43.8154 26.6946 44.3677 26.6946H48.7962C49.3485 26.6946 49.7962 27.1423 49.7962 27.6946V28.7722C49.7962 29.3245 49.3485 29.7722 48.7962 29.7722H44.3677C43.8154 29.7722 43.3677 29.3245 43.3677 28.7722V27.6946Z" fill="#D3D3D3"/>
<path fill-rule="evenodd" clip-rule="evenodd" d="M43.3677 33.8499C43.3677 33.2976 43.8154 32.8499 44.3677 32.8499H57.3677C57.92 32.8499 58.3677 33.2976 58.3677 33.8499V34.9274C58.3677 35.4797 57.92 35.9274 57.3677 35.9274H44.3677C43.8154 35.9274 43.3677 35.4797 43.3677 34.9274V33.8499Z" fill="#815DE6"/>
<path fill-rule="evenodd" clip-rule="evenodd" d="M60.5107 33.8499C60.5107 33.2976 60.9585 32.8499 61.5107 32.8499H67.0107C67.563 32.8499 68.0107 33.2976 68.0107 33.8499V34.9274C68.0107 35.4797 67.563 35.9274 67.0107 35.9274H61.5107C60.9585 35.9274 60.5107 35.4797 60.5107 34.9274V33.8499Z" fill="#815DE6"/>
<path fill-rule="evenodd" clip-rule="evenodd" d="M70.1538 33.8499C70.1538 33.2976 70.6015 32.8499 71.1538 32.8499H74.511C75.0632 32.8499 75.511 33.2976 75.511 33.8499V34.9274C75.511 35.4797 75.0632 35.9274 74.511 35.9274H71.1538C70.6015 35.9274 70.1538 35.4797 70.1538 34.9274V33.8499Z" fill="#815DE6"/>
<path fill-rule="evenodd" clip-rule="evenodd" d="M43.3677 46.1602C43.3677 45.6079 43.8154 45.1602 44.3677 45.1602H58.4391C58.9914 45.1602 59.4391 45.6079 59.4391 46.1602V47.2377C59.4391 47.79 58.9914 48.2377 58.4391 48.2377H44.3677C43.8154 48.2377 43.3677 47.79 43.3677 47.2377V46.1602Z" fill="#815DE6"/>
<path fill-rule="evenodd" clip-rule="evenodd" d="M51.9395 64.6257C51.9395 64.0734 52.3872 63.6257 52.9395 63.6257H76.6537C77.206 63.6257 77.6537 64.0734 77.6537 64.6257V65.7033C77.6537 66.2556 77.206 66.7033 76.6537 66.7033H52.9395C52.3872 66.7033 51.9395 66.2556 51.9395 65.7033V64.6257Z" fill="#815DE6"/>
<path fill-rule="evenodd" clip-rule="evenodd" d="M61.582 46.1602C61.582 45.6079 62.0297 45.1602 62.582 45.1602H71.2963C71.8486 45.1602 72.2963 45.6079 72.2963 46.1602V47.2377C72.2963 47.79 71.8486 48.2377 71.2963 48.2377H62.582C62.0297 48.2377 61.582 47.79 61.582 47.2377V46.1602Z" fill="#815DE6"/>
<path fill-rule="evenodd" clip-rule="evenodd" d="M74.4395 46.1602C74.4395 45.6079 74.8872 45.1602 75.4395 45.1602H89.5109C90.0632 45.1602 90.5109 45.6079 90.5109 46.1602V47.2377C90.5109 47.79 90.0632 48.2377 89.5109 48.2377H75.4395C74.8872 48.2377 74.4395 47.79 74.4395 47.2377V46.1602Z" fill="#815DE6"/>
<path fill-rule="evenodd" clip-rule="evenodd" d="M74.4395 27.6946C74.4395 27.1423 74.8872 26.6946 75.4395 26.6946H86.2966C86.8489 26.6946 87.2966 27.1423 87.2966 27.6946V28.7722C87.2966 29.3245 86.8489 29.7722 86.2966 29.7722H75.4395C74.8872 29.7722 74.4395 29.3245 74.4395 28.7722V27.6946Z" fill="#D3D3D3"/>
<path fill-rule="evenodd" clip-rule="evenodd" d="M61.582 70.7809C61.582 70.2286 62.0297 69.7809 62.582 69.7809H71.2963C71.8486 69.7809 72.2963 70.2286 72.2963 70.7809V71.8585C72.2963 72.4108 71.8486 72.8585 71.2963 72.8585H62.582C62.0297 72.8585 61.582 72.4108 61.582 71.8585V70.7809Z" fill="#D3D3D3"/>
<path fill-rule="evenodd" clip-rule="evenodd" d="M43.3677 70.7809C43.3677 70.2286 43.8154 69.7809 44.3677 69.7809H58.4391C58.9914 69.7809 59.4391 70.2286 59.4391 70.7809V71.8585C59.4391 72.4108 58.9914 72.8585 58.4391 72.8585H44.3677C43.8154 72.8585 43.3677 72.4108 43.3677 71.8585V70.7809Z" fill="#D3D3D3"/>
<path fill-rule="evenodd" clip-rule="evenodd" d="M43.3677 83.0912C43.3677 82.5389 43.8154 82.0912 44.3677 82.0912H58.4391C58.9914 82.0912 59.4391 82.5389 59.4391 83.0912V84.1688C59.4391 84.7211 58.9914 85.1688 58.4391 85.1688H44.3677C43.8154 85.1688 43.3677 84.7211 43.3677 84.1688V83.0912Z" fill="#D3D3D3"/>
<path fill-rule="evenodd" clip-rule="evenodd" d="M43.3677 89.2463C43.3677 88.6941 43.8154 88.2463 44.3677 88.2463H48.7962C49.3485 88.2463 49.7962 88.6941 49.7962 89.2463V90.3239C49.7962 90.8762 49.3485 91.3239 48.7962 91.3239H44.3677C43.8154 91.3239 43.3677 90.8762 43.3677 90.3239V89.2463Z" fill="#D3D3D3"/>
<path fill-rule="evenodd" clip-rule="evenodd" d="M43.3677 76.936C43.3677 76.3838 43.8154 75.936 44.3677 75.936H48.7962C49.3485 75.936 49.7962 76.3838 49.7962 76.936V78.0136C49.7962 78.5659 49.3485 79.0136 48.7962 79.0136H44.3677C43.8154 79.0136 43.3677 78.5659 43.3677 78.0136V76.936Z" fill="#D3D3D3"/>
<path fill-rule="evenodd" clip-rule="evenodd" d="M51.9395 76.936C51.9395 76.3838 52.3872 75.936 52.9395 75.936H60.5823C61.1346 75.936 61.5823 76.3838 61.5823 76.936V78.0136C61.5823 78.5659 61.1346 79.0136 60.5823 79.0136H52.9395C52.3872 79.0136 51.9395 78.5659 51.9395 78.0136V76.936Z" fill="#D3D3D3"/>
<path fill-rule="evenodd" clip-rule="evenodd" d="M74.4395 70.7809C74.4395 70.2286 74.8872 69.7809 75.4395 69.7809H89.5109C90.0632 69.7809 90.5109 70.2286 90.5109 70.7809V71.8585C90.5109 72.4108 90.0632 72.8585 89.5109 72.8585H75.4395C74.8872 72.8585 74.4395 72.4108 74.4395 71.8585V70.7809Z" fill="#D3D3D3"/>
<path fill-rule="evenodd" clip-rule="evenodd" d="M51.9395 40.005C51.9395 39.4527 52.3872 39.005 52.9395 39.005H65.9395C66.4917 39.005 66.9395 39.4527 66.9395 40.005V41.0826C66.9395 41.6349 66.4917 42.0826 65.9395 42.0826H52.9395C52.3872 42.0826 51.9395 41.6349 51.9395 41.0826V40.005Z" fill="#D3D3D3"/>
<path fill-rule="evenodd" clip-rule="evenodd" d="M43.3677 40.005C43.3677 39.4527 43.8154 39.005 44.3677 39.005H48.7962C49.3485 39.005 49.7962 39.4527 49.7962 40.005V41.0826C49.7962 41.6349 49.3485 42.0826 48.7962 42.0826H44.3677C43.8154 42.0826 43.3677 41.6349 43.3677 41.0826V40.005Z" fill="#D3D3D3"/>
<path fill-rule="evenodd" clip-rule="evenodd" d="M43.3677 58.4705C43.3677 57.9182 43.8154 57.4705 44.3677 57.4705H58.4391C58.9914 57.4705 59.4391 57.9182 59.4391 58.4705V59.548C59.4391 60.1003 58.9914 60.548 58.4391 60.548H44.3677C43.8154 60.548 43.3677 60.1003 43.3677 59.548V58.4705Z" fill="#D3D3D3"/>
<path fill-rule="evenodd" clip-rule="evenodd" d="M43.3677 52.3153C43.3677 51.763 43.8154 51.3153 44.3677 51.3153H48.7962C49.3485 51.3153 49.7962 51.763 49.7962 52.3153V53.3929C49.7962 53.9452 49.3485 54.3929 48.7962 54.3929H44.3677C43.8154 54.3929 43.3677 53.9452 43.3677 53.3929V52.3153Z" fill="#D3D3D3"/>
<path fill-rule="evenodd" clip-rule="evenodd" d="M51.9395 52.3153C51.9395 51.763 52.3872 51.3153 52.9395 51.3153H60.5823C61.1346 51.3153 61.5823 51.763 61.5823 52.3153V53.3929C61.5823 53.9452 61.1346 54.3929 60.5823 54.3929H52.9395C52.3872 54.3929 51.9395 53.9452 51.9395 53.3929V52.3153Z" fill="#D3D3D3"/>
<path fill-rule="evenodd" clip-rule="evenodd" d="M43.3677 64.6257C43.3677 64.0734 43.8154 63.6257 44.3677 63.6257H48.7962C49.3485 63.6257 49.7962 64.0734 49.7962 64.6257V65.7033C49.7962 66.2556 49.3485 66.7033 48.7962 66.7033H44.3677C43.8154 66.7033 43.3677 66.2556 43.3677 65.7033V64.6257Z" fill="#D3D3D3"/>
<path fill-rule="evenodd" clip-rule="evenodd" d="M102.296 22.0394C102.296 21.211 102.968 20.5394 103.796 20.5394H112.582C113.411 20.5394 114.082 21.211 114.082 22.0394V22.117C114.082 22.9454 113.411 23.617 112.582 23.617H103.796C102.968 23.617 102.296 22.9454 102.296 22.117V22.0394Z" fill="white"/>
<path fill-rule="evenodd" clip-rule="evenodd" d="M102.296 34.3499C102.296 33.5214 102.968 32.8499 103.796 32.8499H116.868C117.696 32.8499 118.368 33.5214 118.368 34.3499V34.4274C118.368 35.2559 117.696 35.9274 116.868 35.9274H103.796C102.968 35.9274 102.296 35.2559 102.296 34.4274V34.3499Z" fill="white"/>
<path fill-rule="evenodd" clip-rule="evenodd" d="M102.296 46.6602C102.296 45.8317 102.968 45.1602 103.796 45.1602H112.582C113.411 45.1602 114.082 45.8317 114.082 46.6602V46.7377C114.082 47.5662 113.411 48.2377 112.582 48.2377H103.796C102.968 48.2377 102.296 47.5662 102.296 46.7377V46.6602Z" fill="white"/>
<path fill-rule="evenodd" clip-rule="evenodd" d="M107.654 94.8757C107.654 94.0473 108.325 93.3757 109.154 93.3757H116.868C117.697 93.3757 118.368 94.0473 118.368 94.8757V94.9533C118.368 95.7817 117.697 96.4533 116.868 96.4533H109.154C108.325 96.4533 107.654 95.7817 107.654 94.9533V94.8757Z" fill="#815DE6"/>
<path fill-rule="evenodd" clip-rule="evenodd" d="M102.296 94.8757C102.296 94.0473 102.968 93.3757 103.796 93.3757H104.011C104.839 93.3757 105.511 94.0473 105.511 94.8757V94.9533C105.511 95.7817 104.839 96.4533 104.011 96.4533H103.796C102.968 96.4533 102.296 95.7817 102.296 94.9533V94.8757Z" fill="white"/>
<path fill-rule="evenodd" clip-rule="evenodd" d="M102.296 28.1946C102.296 27.3662 102.968 26.6946 103.796 26.6946H107.225C108.053 26.6946 108.725 27.3662 108.725 28.1946V28.2722C108.725 29.1006 108.053 29.7722 107.225 29.7722H103.796C102.968 29.7722 102.296 29.1006 102.296 28.2722V28.1946Z" fill="white"/>
<path fill-rule="evenodd" clip-rule="evenodd" d="M102.296 40.505C102.296 39.6766 102.968 39.005 103.796 39.005H107.225C108.053 39.005 108.725 39.6766 108.725 40.505V40.5826C108.725 41.411 108.053 42.0826 107.225 42.0826H103.796C102.968 42.0826 102.296 41.411 102.296 40.5826V40.505Z" fill="white"/>
<path fill-rule="evenodd" clip-rule="evenodd" d="M110.868 40.505C110.868 39.6766 111.539 39.005 112.368 39.005H113.653C114.482 39.005 115.153 39.6766 115.153 40.505V40.5826C115.153 41.411 114.482 42.0826 113.653 42.0826H112.368C111.539 42.0826 110.868 41.411 110.868 40.5826V40.505Z" fill="white"/>
<path fill-rule="evenodd" clip-rule="evenodd" d="M110.868 28.1946C110.868 27.3662 111.539 26.6946 112.368 26.6946H119.011C119.839 26.6946 120.511 27.3662 120.511 28.1946V28.2722C120.511 29.1006 119.839 29.7722 119.011 29.7722H112.368C111.539 29.7722 110.868 29.1006 110.868 28.2722V28.1946Z" fill="white"/>
<path fill-rule="evenodd" clip-rule="evenodd" d="M102.296 58.9705C102.296 58.142 102.968 57.4705 103.796 57.4705H116.868C117.696 57.4705 118.368 58.142 118.368 58.9705V59.048C118.368 59.8765 117.696 60.548 116.868 60.548H103.796C102.968 60.548 102.296 59.8765 102.296 59.048V58.9705Z" fill="white"/>
<path fill-rule="evenodd" clip-rule="evenodd" d="M102.296 52.8153C102.296 51.9869 102.968 51.3153 103.796 51.3153H107.225C108.053 51.3153 108.725 51.9869 108.725 52.8153V52.8929C108.725 53.7213 108.053 54.3929 107.225 54.3929H103.796C102.968 54.3929 102.296 53.7213 102.296 52.8929V52.8153Z" fill="white"/>
<path fill-rule="evenodd" clip-rule="evenodd" d="M102.296 65.1257C102.296 64.2973 102.968 63.6257 103.796 63.6257H107.225C108.053 63.6257 108.725 64.2973 108.725 65.1257V65.2033C108.725 66.0317 108.053 66.7033 107.225 66.7033H103.796C102.968 66.7033 102.296 66.0317 102.296 65.2033V65.1257Z" fill="white"/>
<path fill-rule="evenodd" clip-rule="evenodd" d="M110.868 65.1257C110.868 64.2973 111.539 63.6257 112.368 63.6257H113.653C114.482 63.6257 115.153 64.2973 115.153 65.1257V65.2033C115.153 66.0317 114.482 66.7033 113.653 66.7033H112.368C111.539 66.7033 110.868 66.0317 110.868 65.2033V65.1257Z" fill="white"/>
<path fill-rule="evenodd" clip-rule="evenodd" d="M110.868 52.8153C110.868 51.9869 111.539 51.3153 112.368 51.3153H119.011C119.839 51.3153 120.511 51.9869 120.511 52.8153V52.8929C120.511 53.7213 119.839 54.3929 119.011 54.3929H112.368C111.539 54.3929 110.868 53.7213 110.868 52.8929V52.8153Z" fill="white"/>
<path fill-rule="evenodd" clip-rule="evenodd" d="M148.904 73.8842C148.016 73.8842 147.296 74.5736 147.296 75.423C147.296 76.2724 148.016 76.9618 148.904 76.9618C149.791 76.9618 150.511 76.2724 150.511 75.423C150.511 74.5736 149.791 73.8842 148.904 73.8842ZM3.72503 11.8196C3.72503 10.9701 3.00503 10.2808 2.11788 10.2808C1.23074 10.2808 0.510742 10.9701 0.510742 11.8196C0.510742 12.669 1.23074 13.3583 2.11788 13.3583C3.00503 13.3583 3.72503 12.669 3.72503 11.8196ZM146.225 13.3584H145.153V12.3325C145.153 11.7662 144.673 11.3066 144.082 11.3066C143.491 11.3066 143.011 11.7662 143.011 12.3325V13.3584H141.939C141.348 13.3584 140.868 13.8179 140.868 14.3842C140.868 14.9505 141.348 15.4101 141.939 15.4101H143.011V16.4359C143.011 17.0022 143.491 17.4618 144.082 17.4618C144.673 17.4618 145.153 17.0022 145.153 16.4359V15.4101H146.225C146.816 15.4101 147.296 14.9505 147.296 14.3842C147.296 13.8179 146.816 13.3584 146.225 13.3584ZM8.01095 66.7032H6.93952V65.6773C6.93952 65.111 6.45952 64.6514 5.86809 64.6514C5.27667 64.6514 4.79667 65.111 4.79667 65.6773V66.7032H3.72524C3.13381 66.7032 2.65381 67.1628 2.65381 67.729C2.65381 68.2953 3.13381 68.7549 3.72524 68.7549H4.79667V69.7808C4.79667 70.347 5.27667 70.8066 5.86809 70.8066C6.45952 70.8066 6.93952 70.347 6.93952 69.7808V68.7549H8.01095C8.60238 68.7549 9.08238 68.2953 9.08238 67.729C9.08238 67.1628 8.60238 66.7032 8.01095 66.7032Z" fill="#D3D3D3"/>
<path d="M154.592 39.8932C154.585 39.3677 154.187 38.9372 153.691 38.9173L146.184 38.6179C145.632 38.5958 145.201 38.9933 145.208 39.5188L145.131 40.7597C145.137 41.2852 145.535 41.7157 146.032 41.7355L151.386 41.9491L151.146 47.2747C151.126 47.7715 151.55 48.2307 152.047 48.2505L153.316 48.3011C153.813 48.321 154.244 47.9235 154.292 47.4002L154.592 39.8932ZM159.201 33.8296L151.694 33.5302C151.142 33.5081 150.712 33.9056 150.718 34.4311L150.641 35.672C150.648 36.1975 151.045 36.628 151.542 36.6478L156.87 36.8327L156.656 42.187C156.636 42.6838 157.034 43.1143 157.557 43.1628L158.8 43.1847C159.324 43.2333 159.783 42.8093 159.776 42.2838L160.076 34.7768C160.095 34.28 159.698 33.8495 159.201 33.8296Z" fill="#815DE6"/>
</svg>
